<svg width="581" height="126" viewBox="0 0 581 126" fill="none" xmlns="http://www.w3.org/2000/svg">
<path d="M84.968 126V65.464L68.04 88.28L54.608 90.12L34.368 65.464V126H0.88V0.879999H23.88L61.6 48.536L96.192 0.879999H118.456V126H84.968ZM196.343 40.992L184.383 75.032H208.855L196.343 40.992ZM213.639 0.879999L260.375 122.688L227.439 126L218.423 101.344H175.183L166.535 126H133.231L180.151 0.879999H213.639ZM326.603 27.192H308.571V60.312H326.971C332.123 60.312 336.355 58.7787 339.667 55.712C342.979 52.5227 344.635 48.4747 344.635 43.568C344.635 38.048 343.04 33.9387 339.851 31.24C336.662 28.5413 332.246 27.192 326.603 27.192ZM275.083 126V0.879999H327.707C341.568 0.879999 353.59 4.25333 363.771 11C374.075 17.624 379.227 28.48 379.227 43.568C379.227 51.1733 377.632 57.736 374.443 63.256C371.376 68.776 367.328 73.2533 362.299 76.688L389.899 126H351.075L330.835 86.624H308.571V126H275.083ZM404.638 126V0.879999H438.126V126H404.638ZM516.007 40.992L504.047 75.032H528.519L516.007 40.992ZM533.303 0.879999L580.039 122.688L547.103 126L538.087 101.344H494.847L486.199 126H452.895L499.815 0.879999H533.303Z" fill="white"/>
</svg>
