<svg width="780" height="625" viewBox="0 0 780 625" fill="none" xmlns="http://www.w3.org/2000/svg">
<path fill-rule="evenodd" clip-rule="evenodd" d="M357.313 0L299.418 187.165L242.194 1H162.658L164.138 7.16659C218.338 233.055 151.218 446.771 1.72702 576.22C-0.360521 578.028 -0.587406 581.186 1.22026 583.273C1.37778 583.455 1.54557 583.623 1.722 583.776C1.90637 583.988 2.11118 584.188 2.33616 584.372L51.9239 624.895L55.0708 622.446C106.678 582.286 146.765 542.844 178.71 485.487C208.58 431.858 231.172 362.853 249.717 263.45L262.572 306.279L165.22 621H246.676L302.967 440.869L357.78 623.5H427.229L482.912 436.316L537.259 621H620.296L521.876 305.333L534.505 262.881C552.788 353.713 572.492 419.605 600.414 473.642C630.402 531.676 669.719 575.749 726.322 622.36L729.501 624.978L778.18 584.858C780.311 583.102 780.615 579.951 778.858 577.82C778.6 577.507 778.312 577.233 778.001 576.999C777.743 576.655 777.435 576.339 777.08 576.062C708.125 522.129 654.347 433.027 624.614 330.606C594.896 228.235 589.341 113.023 616.345 7.23669L617.937 1H538.302L483.134 181.072L426.679 0H357.313ZM477.942 198.017L419.322 10H364.687L304.635 204.138L333.588 298.33L392.627 112.051L447.918 296.018L477.942 198.017ZM442.647 313.223L392.373 145.949L339.266 313.511C339.118 313.977 338.908 314.407 338.648 314.794L342.822 328.371C352.799 313.721 361.5 294.197 370.757 266.419L371.896 263H408.818L410.107 266.057C420.767 291.327 430.056 310.139 439.203 324.462L442.647 313.223ZM299.387 221.102L335.367 338.154C323.955 351.488 310.338 360.487 291.785 368.826L273.026 306.323L299.387 221.102ZM346.495 340.322C334.451 352.884 303.179 374.075 285.298 382L297.834 423.768C317.097 416.323 348.061 395.333 360.382 385.501L346.495 340.322ZM379.093 273C368.846 303.15 358.88 324.353 346.495 340.322L360.382 385.501C370.445 375.909 379.801 363.918 390.31 347.773L394.169 341.842L398.47 347.461C407.482 359.233 415.454 368.861 423.115 376.976L435.429 336.78C424.551 321.374 414.072 300.877 402.189 273H379.093ZM423.115 376.976L435.429 336.78C435.731 337.138 443.515 347.213 443.818 347.564C457.179 363.043 480.97 375.464 499.07 382L487.781 419.948C472.619 413.156 451.379 402.137 440.05 392.883C437.05 390.432 426.087 379.79 423.115 376.976ZM499.917 379.151C499.646 379.984 500.515 378.593 499.917 379.151L499.07 382L487.781 419.948L544.741 611H606.704L516.762 322.526L499.917 379.151C500.132 380.026 500.217 378.232 499.917 379.151ZM451.388 341.03C463.285 354.812 475.999 362.803 492.549 368.85L516.537 288.209L488.409 197.991L446.457 334.924C448.092 337.082 449.734 339.113 451.388 341.03ZM419.769 387.898C411.776 379.845 403.703 370.423 394.814 359.074C384.372 374.511 374.598 386.372 363.638 396.091L390.492 483.457L419.769 387.898ZM355.275 402.919L390.508 517.543L427.865 395.609C429.805 397.348 431.754 399.018 433.724 400.627C446.204 410.822 459.339 418.436 475.651 425.652L419.771 613.5H365.22L309.242 426.99C327.873 419.834 342.461 412.534 355.275 402.919ZM297.834 423.768L285.298 382L267.727 323.454L178.78 611H239.324L297.834 423.768ZM273.026 306.323L299.387 221.102L234.806 11H175.313C227.1 235.64 160.834 448.611 12.6853 579.915L52.0697 612.1C101.544 573.264 139.557 535.234 169.974 480.622C201.086 424.76 224.433 351.221 243.574 241.143L253.289 240.563L273.026 306.323ZM516.537 288.209L488.409 197.991L545.698 11H605.103C579.388 116.983 585.436 231.517 615.011 333.394C644.621 435.393 697.953 525.154 767.178 580.967L729.506 612.016C675.339 566.977 637.94 524.479 609.298 469.051C580.039 412.427 559.768 342.022 540.411 241.059L530.708 240.574L516.537 288.209Z" fill="#FFD700"/>
</svg>
