<svg width="534" height="153" viewBox="0 0 534 153" fill="none" xmlns="http://www.w3.org/2000/svg">
<path d="M0.256 151L16.08 14.288H62.264L78.824 84.392L85.08 116.408L90.048 84.392L104.768 14.288H149.48L166.408 151H133.472L127.768 79.056L125.744 39.68L117.28 80.16L98.88 151.736H68.52L48.648 80.16L39.632 39.68L37.24 79.056L31.904 151H0.256ZM213.641 152.472C206.895 152.472 201.007 151.092 195.977 148.332C191.009 145.511 187.145 141.647 184.385 136.74C181.687 131.772 180.337 126.099 180.337 119.72C180.337 113.709 181.963 108.496 185.213 104.08C188.525 99.6027 193.033 96.168 198.737 93.776C202.847 91.9973 207.324 90.6787 212.169 89.82C217.015 88.9 221.86 88.2867 226.705 87.98C231.612 87.6733 236.212 87.52 240.505 87.52L245.289 93.408L240.505 103.528C238.359 103.589 236.12 103.773 233.789 104.08C231.52 104.325 229.373 104.693 227.349 105.184C225.325 105.613 223.7 106.104 222.473 106.656C220.572 107.453 218.763 108.649 217.045 110.244C215.389 111.777 214.561 114.384 214.561 118.064C214.561 122.909 215.88 126.436 218.517 128.644C221.216 130.791 224.252 131.864 227.625 131.864C229.404 131.864 231.152 131.649 232.869 131.22C234.648 130.791 236.212 130.269 237.561 129.656C238.911 128.981 239.892 128.307 240.505 127.632L245.841 134.44L242.161 142.352C239.34 144.805 235.599 147.105 230.937 149.252C226.337 151.399 220.572 152.472 213.641 152.472ZM273.625 151H242.161V135.728H240.505V81.448C240.505 76.9093 239.248 73.9347 236.733 72.524C234.28 71.1133 230.753 70.408 226.153 70.408C222.228 70.408 218.119 70.7147 213.825 71.328C209.593 71.9413 205.484 72.8 201.497 73.904C197.511 74.9467 194.015 76.1733 191.009 77.584L184.201 58.08C186.716 56.5467 190.335 54.9213 195.057 53.204C199.841 51.4253 205.208 49.9227 211.157 48.696C217.107 47.4693 223.148 46.856 229.281 46.856C240.015 46.856 248.632 48.1133 255.133 50.628C261.635 53.1427 266.327 57.2213 269.209 62.864C272.153 68.5067 273.625 76.0507 273.625 85.496V151ZM329.964 90.648L328.676 66.544C329.903 62.8027 331.957 59.46 334.84 56.516C337.784 53.572 341.28 51.272 345.328 49.616C349.437 47.8987 353.884 47.04 358.668 47.04C360.14 47.04 361.612 47.132 363.084 47.316C364.556 47.5 365.599 47.776 366.212 48.144V81.08C365.415 80.528 364.157 79.976 362.44 79.424C360.723 78.8107 358.3 78.504 355.172 78.504C350.265 78.504 346.125 79.24 342.752 80.712C339.44 82.1227 336.741 83.7787 334.656 85.68C332.632 87.5813 331.068 89.2373 329.964 90.648ZM298.684 151V48.512H327.756L329.412 66.728L331.988 69.488V151H298.684ZM385.319 151V48.512H418.623V151H385.319ZM400.407 36.184C395.071 36.184 390.655 34.5893 387.159 31.4C383.724 28.1493 382.007 24.04 382.007 19.072C382.007 15.6987 382.927 12.6013 384.767 9.77999C386.607 6.95866 389.03 4.71999 392.035 3.064C395.102 1.34666 398.444 0.487997 402.063 0.487997C407.522 0.487997 411.907 2.08266 415.219 5.27199C418.592 8.39999 420.279 12.5093 420.279 17.6C420.279 22.6293 418.347 26.984 414.483 30.664C410.619 34.344 405.927 36.184 400.407 36.184ZM473.29 152.472C466.543 152.472 460.655 151.092 455.626 148.332C450.658 145.511 446.794 141.647 444.034 136.74C441.335 131.772 439.986 126.099 439.986 119.72C439.986 113.709 441.611 108.496 444.862 104.08C448.174 99.6027 452.682 96.168 458.386 93.776C462.495 91.9973 466.972 90.6787 471.818 89.82C476.663 88.9 481.508 88.2867 486.354 87.98C491.26 87.6733 495.86 87.52 500.154 87.52L504.938 93.408L500.154 103.528C498.007 103.589 495.768 103.773 493.438 104.08C491.168 104.325 489.022 104.693 486.998 105.184C484.974 105.613 483.348 106.104 482.122 106.656C480.22 107.453 478.411 108.649 476.694 110.244C475.038 111.777 474.21 114.384 474.21 118.064C474.21 122.909 475.528 126.436 478.166 128.644C480.864 130.791 483.9 131.864 487.274 131.864C489.052 131.864 490.8 131.649 492.518 131.22C494.296 130.791 495.86 130.269 497.21 129.656C498.559 128.981 499.54 128.307 500.154 127.632L505.49 134.44L501.81 142.352C498.988 144.805 495.247 147.105 490.586 149.252C485.986 151.399 480.22 152.472 473.29 152.472ZM533.274 151H501.81V135.728H500.154V81.448C500.154 76.9093 498.896 73.9347 496.382 72.524C493.928 71.1133 490.402 70.408 485.802 70.408C481.876 70.408 477.767 70.7147 473.474 71.328C469.242 71.9413 465.132 72.8 461.146 73.904C457.159 74.9467 453.663 76.1733 450.658 77.584L443.85 58.08C446.364 56.5467 449.983 54.9213 454.706 53.204C459.49 51.4253 464.856 49.9227 470.806 48.696C476.755 47.4693 482.796 46.856 488.93 46.856C499.663 46.856 508.28 48.1133 514.782 50.628C521.283 53.1427 525.975 57.2213 528.858 62.864C531.802 68.5067 533.274 76.0507 533.274 85.496V151Z" fill="white"/>
</svg>
